<?xml version="1.0" standalone="no"?>
<!DOCTYPE svg PUBLIC "-//W3C//DTD SVG 20010904//EN"
 "http://www.w3.org/TR/2001/REC-SVG-20010904/DTD/svg10.dtd">
<svg version="1.0" xmlns="http://www.w3.org/2000/svg"
 width="260.000000pt" height="260.000000pt" viewBox="0 0 260.000000 260.000000"
 preserveAspectRatio="xMidYMid meet">
<metadata>
Created by potrace 1.14, written by Peter Selinger 2001-2017
</metadata>
<g transform="translate(0.000000,260.000000) scale(0.100000,-0.100000)"
fill="#000000" stroke="none">
<path d="M1683 1856 c-214 -52 -370 -236 -408 -481 -4 -22 -6 -92 -6 -155 1
-193 50 -334 155 -444 71 -73 165 -128 246 -143 14 -2 42 -8 64 -13 41 -9 228
-6 286 5 67 13 185 55 235 84 l50 28 0 247 c0 135 -2 247 -5 247 -3 1 -96 2
-207 3 -129 1 -204 -3 -206 -9 -5 -15 -2 -154 4 -159 3 -4 100 -13 152 -15 15
-1 17 -13 17 -105 l0 -104 -27 -10 c-96 -37 -248 -39 -325 -5 -90 41 -155 130
-184 253 -20 85 -11 290 15 365 44 123 139 216 237 231 74 11 177 -1 230 -28
l48 -24 20 -84 21 -85 75 0 c114 -1 105 -13 104 136 -1 105 -5 133 -18 148
-24 27 -151 87 -226 107 -82 22 -275 27 -347 10z"/>
<path d="M665 1850 c-1 -3 -2 -36 -1 -74 1 -66 2 -70 27 -76 20 -6 89 -15 137
-20 8 0 0 -723 -9 -753 -21 -78 -80 -119 -166 -118 -96 1 -153 57 -167 162
l-7 50 -117 -3 -117 -3 3 -35 c12 -129 62 -226 151 -292 50 -36 152 -69 237
-75 234 -17 402 98 431 298 5 30 8 215 8 411 l0 357 45 7 c86 13 87 14 87 93
0 39 -2 72 -6 72 -21 4 -533 3 -536 -1z"/>
</g>
</svg>
